<svg xmlns="http://www.w3.org/2000/svg"  viewBox="0 0 48 48" width="48px" height="48px" baseProfile="basic"><linearGradient id="hlWX3vESs0eSKhHV_ppbBa" x1=".081" x2="50.487" y1="2.176" y2="52.582" gradientUnits="userSpaceOnUse"><stop offset="0" stop-color="#262626" stop-opacity="0"/><stop offset="1" stop-color="#262626" stop-opacity=".8"/></linearGradient><path fill="url(#hlWX3vESs0eSKhHV_ppbBa)" d="M42.906,33.283c-1.034,2.289-1.529,3.313-2.857,5.336c-1.855,2.825-4.475,6.351-7.714,6.375	c-2.881,0.024-3.624-1.88-7.534-1.848c-3.91,0.019-4.724,1.883-7.608,1.854c-3.239-0.029-5.718-3.206-7.575-6.026	c-5.193-7.911-5.741-17.182-2.531-22.116c2.27-3.498,5.864-5.552,9.237-5.552c3.436,0,5.595,1.888,8.436,1.888	c2.756,0,4.435-1.893,8.409-1.893c3.005,0,6.183,1.637,8.454,4.463C34.195,19.834,35.401,30.444,42.906,33.283z"/><linearGradient id="hlWX3vESs0eSKhHV_ppbBb" x1="17.19" x2="36.29" y1="-4.022" y2="15.078" gradientUnits="userSpaceOnUse"><stop offset="0" stop-color="#262626" stop-opacity="0"/><stop offset="1" stop-color="#262626" stop-opacity=".8"/></linearGradient><path fill="url(#hlWX3vESs0eSKhHV_ppbBb)" d="M29.801,8.127c1.428-1.833,2.511-4.418,2.118-7.055c-2.33,0.159-5.054,1.646-6.645,3.573	c-1.441,1.754-2.637,4.36-2.171,6.881C25.644,11.607,28.274,10.093,29.801,8.127z"/></svg>